<svg width="50" height="51" viewBox="0 0 50 51" fill="none" xmlns="http://www.w3.org/2000/svg">
<path d="M42.9625 0.843018H7.036C3.15119 0.843018 0.000551701 3.9932 0 7.87952L2.38419e-07 43.806C0 47.6914 3.14958 50.8419 7.0355 50.843H23.386V32.593H17.2065V25.474H23.386V20.231C23.386 17.259 24.2078 14.9517 25.8515 13.309C27.4952 11.6663 29.7243 10.8433 32.539 10.84C35.358 10.84 37.183 10.9495 38.017 11.1555V17.493H34.2625C32.9062 17.493 31.9802 17.7805 31.4845 18.3555C30.9372 19.0999 30.6745 20.0157 30.744 20.937V25.4745H37.786L36.847 32.593H30.744V50.843H42.9625C46.8492 50.843 50 47.6922 50 43.8055V7.88102C50 3.99362 46.8494 0.842741 42.9625 0.843018Z" fill="#FEFBF3"/>
</svg>
