<svg width="50" height="51" viewBox="0 0 50 51" fill="none" xmlns="http://www.w3.org/2000/svg">
<path d="M25.0002 14.739C18.9327 14.739 14.0138 19.6578 14.0137 25.7255C14.0137 31.7934 18.9326 36.7122 25.0005 36.7123C31.0685 36.7123 35.9874 31.7935 35.9875 25.7258C35.9759 19.6627 31.0634 14.7505 25.0002 14.739ZM25.0002 32.7644C21.1134 32.7644 17.9622 29.6134 17.9621 25.7264C17.9621 21.839 21.1132 18.6879 25.0003 18.6878C28.8878 18.6878 32.039 21.8388 32.0391 25.7258C32.0218 29.606 28.8804 32.7472 25.0002 32.7644Z" fill="#FEFBF3"/>
<ellipse cx="38.1258" cy="12.8155" rx="3.38656" ry="3.38656" fill="#FEFBF3"/>
<path d="M45.9675 4.97591C43.347 2.25444 39.617 0.842957 35.383 0.842957H14.617C5.847 0.842957 0 6.6899 0 15.4598V36.1251C0 40.4596 1.4115 44.1895 4.234 46.9115C6.956 49.5325 10.584 50.843 14.718 50.843H35.2825C39.617 50.843 43.246 49.4315 45.867 46.9115C48.589 44.2905 50 40.5616 50 36.2261V15.4598C50 11.2259 48.5885 7.59689 45.9675 4.97591ZM45.5645 36.2256C45.5645 39.3506 44.4555 41.8705 42.641 43.5845C40.8265 45.2985 38.3065 46.2055 35.282 46.2055H14.7175C11.6935 46.2055 9.173 45.298 7.3585 43.5845C5.544 41.7701 4.6365 39.2501 4.6365 36.1251V15.4598C4.6365 12.4358 5.544 9.91537 7.3585 8.10088C9.072 6.3874 11.693 5.47991 14.7175 5.47991H35.484C38.508 5.47991 41.0285 6.3874 42.843 8.20188C44.6517 10.18 45.6269 12.7801 45.565 15.4598L45.5645 36.2256Z" fill="#FEFBF3"/>
</svg>
