<svg width="186" height="54" viewBox="0 0 186 54" fill="none" xmlns="http://www.w3.org/2000/svg">
<path d="M24.6973 42H19.002V31.7344H8.56055V42H2.88281V16.793H8.56055V26.8477H19.002V16.793H24.6973V42ZM32.748 21.1523C31.8105 21.1523 31.043 20.877 30.4453 20.3262C29.8477 19.7637 29.5488 19.0781 29.5488 18.2695C29.5488 17.4375 29.8477 16.7578 30.4453 16.2305C31.043 15.7031 31.8105 15.4395 32.748 15.4395C33.6973 15.4395 34.4648 15.7031 35.0508 16.2305C35.6484 16.7578 35.9473 17.4375 35.9473 18.2695C35.9473 19.1133 35.6484 19.8047 35.0508 20.3438C34.4648 20.8828 33.6973 21.1523 32.748 21.1523ZM35.4902 42H29.9355V24H35.4902V42ZM57.5508 42H52.0137V31.998C52.0137 29.209 51.0176 27.8145 49.0254 27.8145C48.0645 27.8145 47.2734 28.1836 46.6523 28.9219C46.0312 29.6602 45.7207 30.5977 45.7207 31.7344V42H40.166V24H45.7207V26.8477H45.791C47.1152 24.6562 49.043 23.5605 51.5742 23.5605C55.5586 23.5605 57.5508 26.0332 57.5508 30.9785V42ZM76.9395 42H71.6836V39.416H71.6133C70.4062 41.4316 68.6191 42.4395 66.252 42.4395C64.5059 42.4395 63.1289 41.9473 62.1211 40.9629C61.125 39.9668 60.627 38.6426 60.627 36.9902C60.627 33.498 62.6953 31.4824 66.832 30.9434L71.7188 30.293C71.7188 28.3242 70.6523 27.3398 68.5195 27.3398C66.375 27.3398 64.3359 27.9785 62.4023 29.2559V25.0723C63.1758 24.6738 64.2305 24.3223 65.5664 24.0176C66.9141 23.7129 68.1387 23.5605 69.2402 23.5605C74.373 23.5605 76.9395 26.1211 76.9395 31.2422V42ZM71.7188 34.6875V33.4746L68.4492 33.8965C66.6445 34.1309 65.7422 34.9453 65.7422 36.3398C65.7422 36.9727 65.959 37.4941 66.3926 37.9043C66.8379 38.3027 67.4355 38.502 68.1855 38.502C69.2285 38.502 70.0781 38.1445 70.7344 37.4297C71.3906 36.7031 71.7188 35.7891 71.7188 34.6875ZM92.2148 41.7891C91.3945 42.2227 90.1582 42.4395 88.5059 42.4395C84.5918 42.4395 82.6348 40.4062 82.6348 36.3398V28.0957H79.7168V24H82.6348V20.1152L88.1719 18.5332V24H92.2148V28.0957H88.1719V35.373C88.1719 37.248 88.916 38.1855 90.4043 38.1855C90.9902 38.1855 91.5938 38.0156 92.2148 37.6758V41.7891ZM110.338 42H105.082V39.416H105.012C103.805 41.4316 102.018 42.4395 99.6504 42.4395C97.9043 42.4395 96.5273 41.9473 95.5195 40.9629C94.5234 39.9668 94.0254 38.6426 94.0254 36.9902C94.0254 33.498 96.0938 31.4824 100.23 30.9434L105.117 30.293C105.117 28.3242 104.051 27.3398 101.918 27.3398C99.7734 27.3398 97.7344 27.9785 95.8008 29.2559V25.0723C96.5742 24.6738 97.6289 24.3223 98.9648 24.0176C100.312 23.7129 101.537 23.5605 102.639 23.5605C107.771 23.5605 110.338 26.1211 110.338 31.2422V42ZM105.117 34.6875V33.4746L101.848 33.8965C100.043 34.1309 99.1406 34.9453 99.1406 36.3398C99.1406 36.9727 99.3574 37.4941 99.791 37.9043C100.236 38.3027 100.834 38.502 101.584 38.502C102.627 38.502 103.477 38.1445 104.133 37.4297C104.789 36.7031 105.117 35.7891 105.117 34.6875Z" fill="#FEFBF3"/>
<path d="M141.023 42H120.721V38.7305L133.641 21.416H121.652V16.793H140.988V19.9746L128.35 37.3945H141.023V42ZM152.783 42.4395C149.783 42.4395 147.422 41.6016 145.699 39.9258C143.988 38.2383 143.133 35.9531 143.133 33.0703C143.133 30.0938 144.023 27.7676 145.805 26.0918C147.586 24.4043 149.994 23.5605 153.029 23.5605C156.018 23.5605 158.361 24.4043 160.061 26.0918C161.76 27.7676 162.609 29.9883 162.609 32.7539C162.609 35.7422 161.73 38.1035 159.973 39.8379C158.227 41.5723 155.83 42.4395 152.783 42.4395ZM152.924 27.8145C151.611 27.8145 150.592 28.2656 149.865 29.168C149.139 30.0703 148.775 31.3477 148.775 33C148.775 36.457 150.17 38.1855 152.959 38.1855C155.619 38.1855 156.949 36.4102 156.949 32.8594C156.949 29.4961 155.607 27.8145 152.924 27.8145ZM174.791 42.4395C171.791 42.4395 169.43 41.6016 167.707 39.9258C165.996 38.2383 165.141 35.9531 165.141 33.0703C165.141 30.0938 166.031 27.7676 167.812 26.0918C169.594 24.4043 172.002 23.5605 175.037 23.5605C178.025 23.5605 180.369 24.4043 182.068 26.0918C183.768 27.7676 184.617 29.9883 184.617 32.7539C184.617 35.7422 183.738 38.1035 181.98 39.8379C180.234 41.5723 177.838 42.4395 174.791 42.4395ZM174.932 27.8145C173.619 27.8145 172.6 28.2656 171.873 29.168C171.146 30.0703 170.783 31.3477 170.783 33C170.783 36.457 172.178 38.1855 174.967 38.1855C177.627 38.1855 178.957 36.4102 178.957 32.8594C178.957 29.4961 177.615 27.8145 174.932 27.8145Z" fill="#E39211"/>
</svg>
