<svg width="186" height="54" viewBox="0 0 186 54" fill="none" xmlns="http://www.w3.org/2000/svg">
<path d="M25 42H19.3047V31.7344H8.86328V42H3.18555V16.793H8.86328V26.8477H19.3047V16.793H25V42ZM33.0508 21.1523C32.1133 21.1523 31.3457 20.877 30.748 20.3262C30.1504 19.7637 29.8516 19.0781 29.8516 18.2695C29.8516 17.4375 30.1504 16.7578 30.748 16.2305C31.3457 15.7031 32.1133 15.4395 33.0508 15.4395C34 15.4395 34.7676 15.7031 35.3535 16.2305C35.9512 16.7578 36.25 17.4375 36.25 18.2695C36.25 19.1133 35.9512 19.8047 35.3535 20.3438C34.7676 20.8828 34 21.1523 33.0508 21.1523ZM35.793 42H30.2383V24H35.793V42ZM57.8535 42H52.3164V31.998C52.3164 29.209 51.3203 27.8145 49.3281 27.8145C48.3672 27.8145 47.5762 28.1836 46.9551 28.9219C46.334 29.6602 46.0234 30.5977 46.0234 31.7344V42H40.4688V24H46.0234V26.8477H46.0938C47.418 24.6562 49.3457 23.5605 51.877 23.5605C55.8613 23.5605 57.8535 26.0332 57.8535 30.9785V42ZM77.2422 42H71.9863V39.416H71.916C70.709 41.4316 68.9219 42.4395 66.5547 42.4395C64.8086 42.4395 63.4316 41.9473 62.4238 40.9629C61.4277 39.9668 60.9297 38.6426 60.9297 36.9902C60.9297 33.498 62.998 31.4824 67.1348 30.9434L72.0215 30.293C72.0215 28.3242 70.9551 27.3398 68.8223 27.3398C66.6777 27.3398 64.6387 27.9785 62.7051 29.2559V25.0723C63.4785 24.6738 64.5332 24.3223 65.8691 24.0176C67.2168 23.7129 68.4414 23.5605 69.543 23.5605C74.6758 23.5605 77.2422 26.1211 77.2422 31.2422V42ZM72.0215 34.6875V33.4746L68.752 33.8965C66.9473 34.1309 66.0449 34.9453 66.0449 36.3398C66.0449 36.9727 66.2617 37.4941 66.6953 37.9043C67.1406 38.3027 67.7383 38.502 68.4883 38.502C69.5312 38.502 70.3809 38.1445 71.0371 37.4297C71.6934 36.7031 72.0215 35.7891 72.0215 34.6875ZM92.5176 41.7891C91.6973 42.2227 90.4609 42.4395 88.8086 42.4395C84.8945 42.4395 82.9375 40.4062 82.9375 36.3398V28.0957H80.0195V24H82.9375V20.1152L88.4746 18.5332V24H92.5176V28.0957H88.4746V35.373C88.4746 37.248 89.2188 38.1855 90.707 38.1855C91.293 38.1855 91.8965 38.0156 92.5176 37.6758V41.7891ZM110.641 42H105.385V39.416H105.314C104.107 41.4316 102.32 42.4395 99.9531 42.4395C98.207 42.4395 96.8301 41.9473 95.8223 40.9629C94.8262 39.9668 94.3281 38.6426 94.3281 36.9902C94.3281 33.498 96.3965 31.4824 100.533 30.9434L105.42 30.293C105.42 28.3242 104.354 27.3398 102.221 27.3398C100.076 27.3398 98.0371 27.9785 96.1035 29.2559V25.0723C96.877 24.6738 97.9316 24.3223 99.2676 24.0176C100.615 23.7129 101.84 23.5605 102.941 23.5605C108.074 23.5605 110.641 26.1211 110.641 31.2422V42ZM105.42 34.6875V33.4746L102.15 33.8965C100.346 34.1309 99.4434 34.9453 99.4434 36.3398C99.4434 36.9727 99.6602 37.4941 100.094 37.9043C100.539 38.3027 101.137 38.502 101.887 38.502C102.93 38.502 103.779 38.1445 104.436 37.4297C105.092 36.7031 105.42 35.7891 105.42 34.6875Z" fill="#FEFBF3"/>
<path d="M141.082 42H120.779V38.7305L133.699 21.416H121.711V16.793H141.047V19.9746L128.408 37.3945H141.082V42ZM152.842 42.4395C149.842 42.4395 147.48 41.6016 145.758 39.9258C144.047 38.2383 143.191 35.9531 143.191 33.0703C143.191 30.0938 144.082 27.7676 145.863 26.0918C147.645 24.4043 150.053 23.5605 153.088 23.5605C156.076 23.5605 158.42 24.4043 160.119 26.0918C161.818 27.7676 162.668 29.9883 162.668 32.7539C162.668 35.7422 161.789 38.1035 160.031 39.8379C158.285 41.5723 155.889 42.4395 152.842 42.4395ZM152.982 27.8145C151.67 27.8145 150.65 28.2656 149.924 29.168C149.197 30.0703 148.834 31.3477 148.834 33C148.834 36.457 150.229 38.1855 153.018 38.1855C155.678 38.1855 157.008 36.4102 157.008 32.8594C157.008 29.4961 155.666 27.8145 152.982 27.8145ZM174.85 42.4395C171.85 42.4395 169.488 41.6016 167.766 39.9258C166.055 38.2383 165.199 35.9531 165.199 33.0703C165.199 30.0938 166.09 27.7676 167.871 26.0918C169.652 24.4043 172.061 23.5605 175.096 23.5605C178.084 23.5605 180.428 24.4043 182.127 26.0918C183.826 27.7676 184.676 29.9883 184.676 32.7539C184.676 35.7422 183.797 38.1035 182.039 39.8379C180.293 41.5723 177.896 42.4395 174.85 42.4395ZM174.99 27.8145C173.678 27.8145 172.658 28.2656 171.932 29.168C171.205 30.0703 170.842 31.3477 170.842 33C170.842 36.457 172.236 38.1855 175.025 38.1855C177.686 38.1855 179.016 36.4102 179.016 32.8594C179.016 29.4961 177.674 27.8145 174.99 27.8145Z" fill="#FEFBF3"/>
</svg>
