<svg width="50" height="51" viewBox="0 0 50 51" fill="none" xmlns="http://www.w3.org/2000/svg">
<path d="M50 10.664C48.1271 11.4922 46.1419 12.0385 44.109 12.285C46.2527 11.0024 47.8569 8.98397 48.6225 6.60601C46.6097 7.80425 44.4054 8.64659 42.1065 9.09602C39.2298 6.01778 34.7631 5.01223 30.8448 6.56077C26.9265 8.10932 24.3541 11.8968 24.359 16.11C24.3551 16.8982 24.4441 17.6841 24.624 18.4515C16.3688 18.0431 8.67767 14.1401 3.474 7.71851C0.75252 12.4118 2.14351 18.4119 6.6525 21.429C5.02118 21.387 3.42486 20.9469 2.0025 20.147L2.0025 20.274C2.0025 25.1629 5.44694 29.3725 10.2371 30.3399C9.35622 30.5787 8.44762 30.6996 7.535 30.6995C6.88741 30.7007 6.24134 30.6369 5.6065 30.509C6.94973 34.6915 10.8034 37.5573 15.1955 37.64C11.5617 40.4961 7.07186 42.0451 2.45 42.037C1.63109 42.0353 0.813 41.9852 0 41.887C4.67632 44.9261 10.1359 46.5386 15.713 46.528C34.594 46.528 44.913 30.878 44.913 17.3055C44.913 16.8605 44.9025 16.4155 44.881 15.981C46.8871 14.5239 48.62 12.7239 50 10.664Z" fill="#FEFBF3"/>
</svg>
