<svg width="64" height="64" viewBox="0 0 64 64" fill="none" xmlns="http://www.w3.org/2000/svg">
<path d="M62.3556 16.5145C61.6171 13.7679 59.4717 11.6225 56.7252 10.884C51.7583 9.55298 31.843 9.55298 31.843 9.55298C31.843 9.55298 11.9278 9.55298 6.96088 10.884C4.21437 11.6226 2.06903 13.768 1.3304 16.5145C0 21.4807 0 31.8431 0 31.8431C0 31.8431 0 42.2054 1.3304 47.1717C2.06896 49.9184 4.21428 52.0639 6.96089 52.8028C11.9278 54.1332 31.843 54.1332 31.843 54.1332C31.843 54.1332 51.7583 54.1332 56.7252 52.8028C59.4718 52.0641 61.6172 49.9184 62.3556 47.1717C63.686 42.2061 63.686 31.8431 63.686 31.8431C63.686 31.8431 63.686 21.4807 62.3556 16.5145ZM25.4744 41.396V22.2902L42.02 31.8431L25.4744 41.396Z" fill="#FEFBF3"/>
</svg>
